{
  "accessors": [
    {
      "bufferView": 2,
      "componentType": 5126,
      "count": 24518,
      "max": [
        0.28491005301475525,
        0.3564806878566742,
        0.31319186091423035
      ],
      "min": [
        -0.22827407717704773,
        0.13550639152526855,
        -0.3064379096031189
      ],
      "type": "VEC3"
    },
    {
      "bufferView": 2,
      "byteOffset": 294216,
      "componentType": 5126,
      "count": 24518,
      "max": [
        0.9995975494384766,
        0.9999880790710449,
        0.9999961853027344
      ],
      "min": [
        -0.9999014735221863,
        -0.999942421913147,
        -0.9999786019325256
      ],
      "type": "VEC3"
    },
    {
      "bufferView": 3,
      "componentType": 5126,
      "count": 24518,
      "max": [
        0.9999096393585205,
        0.9998708367347717,
        0.9998349547386169,
        -1.0
      ],
      "min": [
        -0.9999940991401672,
        -0.9996064901351929,
        -0.9999994039535522,
        -1.0
      ],
      "type": "VEC4"
    },
    {
      "bufferView": 1,
      "componentType": 5126,
      "count": 24518,
      "max": [
        0.9998342394828796,
        0.9999770522117615
      ],
      "min": [
        4.6488097723340616e-05,
        0.0006185173988342285
      ],
      "type": "VEC2"
    },
    {
      "bufferView": 1,
      "byteOffset": 196144,
      "componentType": 5126,
      "count": 24518,
      "max": [
        0.9998342394828796,
        0.9999770522117615
      ],
      "min": [
        4.6488097723340616e-05,
        0.0006185173988342285
      ],
      "type": "VEC2"
    },
    {
      "bufferView": 1,
      "byteOffset": 392288,
      "componentType": 5126,
      "count": 24518,
      "max": [
        0.9998342394828796,
        0.9999770522117615
      ],
      "min": [
        4.6488097723340616e-05,
        0.0006185173988342285
      ],
      "type": "VEC2"
    },
    {
      "bufferView": 1,
      "byteOffset": 588432,
      "componentType": 5126,
      "count": 24518,
      "max": [
        0.9998342394828796,
        0.9999770522117615
      ],
      "min": [
        4.6488097723340616e-05,
        0.0006185173988342285
      ],
      "type": "VEC2"
    },
    {
      "bufferView": 1,
      "byteOffset": 784576,
      "componentType": 5126,
      "count": 24518,
      "max": [
        0.9998342394828796,
        0.9999770522117615
      ],
      "min": [
        4.6488097723340616e-05,
        0.0006185173988342285
      ],
      "type": "VEC2"
    },
    {
      "bufferView": 0,
      "componentType": 5125,
      "count": 128490,
      "type": "SCALAR"
    }
  ],
  "asset": {
    "extras": {
      "author": "Omar Eiada (https://sketchfab.com/Omareiada)",
      "license": "CC-BY-4.0 (http://creativecommons.org/licenses/by/4.0/)",
      "source": "https://sketchfab.com/3d-models/single-denture-delivery-scan-144e8c6f6e204f22af1a25858a58d18a",
      "title": "Single Denture Delivery Scan"
    },
    "generator": "Sketchfab-16.10.0",
    "version": "2.0"
  },
  "bufferViews": [
    {
      "buffer": 0,
      "byteLength": 513960,
      "name": "floatBufferViews",
      "target": 34963
    },
    {
      "buffer": 0,
      "byteLength": 980720,
      "byteOffset": 513960,
      "byteStride": 8,
      "name": "floatBufferViews",
      "target": 34962
    },
    {
      "buffer": 0,
      "byteLength": 588432,
      "byteOffset": 1494680,
      "byteStride": 12,
      "name": "floatBufferViews",
      "target": 34962
    },
    {
      "buffer": 0,
      "byteLength": 392288,
      "byteOffset": 2083112,
      "byteStride": 16,
      "name": "floatBufferViews",
      "target": 34962
    }
  ],
  "buffers": [
    {
      "byteLength": 2475400,
      "uri": "scene.bin"
    }
  ],
  "images": [
    {
      "uri": "textures/material_0_baseColor.jpeg"
    },
    {
      "uri": "textures/material_0_metallicRoughness.png"
    },
    {
      "uri": "textures/material_0_normal.jpeg"
    }
  ],
  "materials": [
    {
      "name": "material_0",
      "normalTexture": {
        "index": 2
      },
      "occlusionTexture": {
        "index": 1
      },
      "pbrMetallicRoughness": {
        "baseColorTexture": {
          "index": 0
        },
        "metallicFactor": 0.0,
        "metallicRoughnessTexture": {
          "index": 1
        }
      }
    }
  ],
  "meshes": [
    {
      "name": "Object_0",
      "primitives": [
        {
          "attributes": {
            "NORMAL": 1,
            "POSITION": 0,
            "TANGENT": 2,
            "TEXCOORD_0": 3,
            "TEXCOORD_1": 4,
            "TEXCOORD_2": 5,
            "TEXCOORD_3": 6,
            "TEXCOORD_4": 7
          },
          "indices": 8,
          "material": 0,
          "mode": 4
        }
      ]
    }
  ],
  "nodes": [
    {
      "children": [
        1
      ],
      "matrix": [
        1.0,
        0.0,
        0.0,
        0.0,
        0.0,
        2.220446049250313e-16,
        -1.0,
        0.0,
        0.0,
        1.0,
        2.220446049250313e-16,
        0.0,
        0.0,
        0.0,
        0.0,
        1.0
      ],
      "name": "Sketchfab_model"
    },
    {
      "children": [
        2
      ],
      "name": "root"
    },
    {
      "children": [
        3
      ],
      "matrix": [
        1.0,
        0.0,
        0.0,
        0.0,
        0.0,
        2.220446049250313e-16,
        1.0,
        0.0,
        0.0,
        -1.0,
        2.220446049250313e-16,
        0.0,
        0.0,
        0.0,
        0.0,
        1.0
      ],
      "name": "GLTF_SceneRootNode"
    },
    {
      "children": [
        4
      ],
      "name": "_0"
    },
    {
      "mesh": 0,
      "name": "Object_4"
    }
  ],
  "samplers": [
    {
      "magFilter": 9729,
      "minFilter": 9987,
      "wrapS": 10497,
      "wrapT": 10497
    }
  ],
  "scene": 0,
  "scenes": [
    {
      "name": "Sketchfab_Scene",
      "nodes": [
        0
      ]
    }
  ],
  "textures": [
    {
      "sampler": 0,
      "source": 0
    },
    {
      "sampler": 0,
      "source": 1
    },
    {
      "sampler": 0,
      "source": 2
    }
  ]
}
