{
  "accessors": [
    {
      "bufferView": 1,
      "componentType": 5126,
      "count": 65532,
      "max": [
        30.21472930908203,
        28.397563934326172,
        218.31951904296875
      ],
      "min": [
        -29.91998291015625,
        -14.415157318115234,
        203.8870086669922
      ],
      "type": "VEC3"
    },
    {
      "bufferView": 1,
      "byteOffset": 786384,
      "componentType": 5126,
      "count": 65532,
      "max": [
        0.9999977946281433,
        0.9999815225601196,
        0.9999962449073792
      ],
      "min": [
        -0.9999929666519165,
        -0.9999679327011108,
        -0.9999997615814209
      ],
      "type": "VEC3"
    },
    {
      "bufferView": 0,
      "componentType": 5125,
      "count": 335514,
      "type": "SCALAR"
    },
    {
      "bufferView": 1,
      "byteOffset": 1572768,
      "componentType": 5126,
      "count": 65532,
      "max": [
        26.38916015625,
        28.41096305847168,
        218.30267333984375
      ],
      "min": [
        -29.941017150878906,
        -17.043010711669922,
        203.92601013183594
      ],
      "type": "VEC3"
    },
    {
      "bufferView": 1,
      "byteOffset": 2359152,
      "componentType": 5126,
      "count": 65532,
      "max": [
        0.9999669790267944,
        0.999971330165863,
        0.9999962449073792
      ],
      "min": [
        -0.9999926090240479,
        -0.9999690055847168,
        -0.9999986290931702
      ],
      "type": "VEC3"
    },
    {
      "bufferView": 0,
      "byteOffset": 1342056,
      "componentType": 5125,
      "count": 317988,
      "type": "SCALAR"
    },
    {
      "bufferView": 1,
      "byteOffset": 3145536,
      "componentType": 5126,
      "count": 18168,
      "max": [
        8.4672212600708,
        27.781835556030273,
        217.00704956054688
      ],
      "min": [
        -23.982025146484375,
        -7.402439117431641,
        205.64199829101563
      ],
      "type": "VEC3"
    },
    {
      "bufferView": 1,
      "byteOffset": 3363552,
      "componentType": 5126,
      "count": 18168,
      "max": [
        0.9999387860298157,
        0.9998993873596191,
        0.9983903765678406
      ],
      "min": [
        -0.9999623894691467,
        -0.9998649954795837,
        -0.9999598264694214
      ],
      "type": "VEC3"
    },
    {
      "bufferView": 0,
      "byteOffset": 2614008,
      "componentType": 5125,
      "count": 84438,
      "type": "SCALAR"
    }
  ],
  "asset": {
    "extras": {
      "author": "jean-michel3d (https://sketchfab.com/jean-michel3d)",
      "license": "CC-BY-4.0 (http://creativecommons.org/licenses/by/4.0/)",
      "source": "https://sketchfab.com/3d-models/bridge-14-dent-metalo-ceramique-13723b5ef6c34cd7a32af2b0783506c9",
      "title": "bridge 14 dent métalo-céramique"
    },
    "generator": "Sketchfab-12.66.0",
    "version": "2.0"
  },
  "bufferViews": [
    {
      "buffer": 0,
      "byteLength": 2951760,
      "name": "floatBufferViews",
      "target": 34963
    },
    {
      "buffer": 0,
      "byteLength": 3581568,
      "byteOffset": 2951760,
      "byteStride": 12,
      "name": "floatBufferViews",
      "target": 34962
    }
  ],
  "buffers": [
    {
      "byteLength": 6533328,
      "uri": "scene.bin"
    }
  ],
  "materials": [
    {
      "doubleSided": true,
      "name": "Scene_-_Root",
      "pbrMetallicRoughness": {
        "metallicFactor": 0.0,
        "roughnessFactor": 0.6
      }
    }
  ],
  "meshes": [
    {
      "name": "Object_0",
      "primitives": [
        {
          "attributes": {
            "NORMAL": 1,
            "POSITION": 0
          },
          "indices": 2,
          "material": 0,
          "mode": 4
        }
      ]
    },
    {
      "name": "Object_1",
      "primitives": [
        {
          "attributes": {
            "NORMAL": 4,
            "POSITION": 3
          },
          "indices": 5,
          "material": 0,
          "mode": 4
        }
      ]
    },
    {
      "name": "Object_2",
      "primitives": [
        {
          "attributes": {
            "NORMAL": 7,
            "POSITION": 6
          },
          "indices": 8,
          "material": 0,
          "mode": 4
        }
      ]
    }
  ],
  "nodes": [
    {
      "children": [
        1
      ],
      "matrix": [
        1.0,
        0.0,
        0.0,
        0.0,
        0.0,
        2.220446049250313e-16,
        -1.0,
        0.0,
        0.0,
        1.0,
        2.220446049250313e-16,
        0.0,
        0.0,
        0.0,
        0.0,
        1.0
      ],
      "name": "Sketchfab_model"
    },
    {
      "children": [
        2,
        3,
        4
      ],
      "name": "2017-08-31_00001-006-37-36-35-34-33-32-31-41-42-43-44-45-46-47-bridge_slm_cad.stl.cleaner.materialmerger.gles"
    },
    {
      "mesh": 0,
      "name": "Object_2"
    },
    {
      "mesh": 1,
      "name": "Object_3"
    },
    {
      "mesh": 2,
      "name": "Object_4"
    }
  ],
  "scene": 0,
  "scenes": [
    {
      "name": "Sketchfab_Scene",
      "nodes": [
        0
      ]
    }
  ]
}
